# Blender 3.4.0
# www.blender.org
mtllib Rock.mtl
o Cube
v -1.000000 -0.417864 1.000000
v -1.000000 0.417864 1.000000
v -1.000000 -0.417864 -1.000000
v -1.000000 0.417864 -1.000000
v 1.000000 -0.417864 1.000000
v 1.000000 0.417864 1.000000
v 1.000000 -0.417864 -1.000000
v 1.000000 0.417864 -1.000000
v -0.808941 0.252466 0.725335
v -0.808941 0.526635 0.725335
v -0.808941 0.252466 -0.853759
v -0.808941 0.526635 -0.853759
v 0.375579 0.252466 0.725335
v 0.375579 0.526635 0.725335
v 0.375579 0.252466 -0.853759
v 0.375579 0.526635 -0.853759
vn 1.0000 -0.0000 -0.0000
vn -0.0000 -0.0000 1.0000
vn -1.0000 -0.0000 -0.0000
vn -0.0000 -0.0000 -1.0000
vn -0.0000 1.0000 -0.0000
vn -0.0000 -1.0000 -0.0000
vt 0.375000 0.000000
vt 0.375000 1.000000
vt 0.125000 0.750000
vt 0.625000 0.000000
vt 0.625000 1.000000
vt 0.875000 0.750000
vt 0.375000 0.250000
vt 0.125000 0.500000
vt 0.625000 0.250000
vt 0.875000 0.500000
vt 0.375000 0.750000
vt 0.625000 0.750000
vt 0.375000 0.500000
vt 0.625000 0.500000
vt 0.375000 0.000000
vt 0.375000 1.000000
vt 0.125000 0.750000
vt 0.625000 0.000000
vt 0.625000 1.000000
vt 0.875000 0.750000
vt 0.375000 0.250000
vt 0.125000 0.500000
vt 0.625000 0.250000
vt 0.875000 0.500000
vt 0.375000 0.750000
vt 0.625000 0.750000
vt 0.375000 0.500000
vt 0.625000 0.500000
s 0
usemtl Gris
f 1/1/1 3/7/1 4/9/1 2/4/1
f 3/7/2 7/13/2 8/14/2 4/9/2
f 7/13/3 5/11/3 6/12/3 8/14/3
f 5/11/4 1/2/4 2/5/4 6/12/4
f 3/8/5 1/3/5 5/11/5 7/13/5
f 8/14/6 6/12/6 2/6/6 4/10/6
f 9/15/3 10/18/3 12/23/3 11/21/3
f 11/21/4 12/23/4 16/28/4 15/27/4
f 15/27/1 16/28/1 14/26/1 13/25/1
f 13/25/2 14/26/2 10/19/2 9/16/2
f 11/22/6 15/27/6 13/25/6 9/17/6
f 16/28/5 12/24/5 10/20/5 14/26/5
o Cube.001
v 0.241800 0.293909 0.550470
v 0.241800 0.472494 0.550470
v 0.241800 0.293909 0.429457
v 0.241800 0.472494 0.429457
v 0.509324 0.293909 0.550470
v 0.509324 0.472494 0.550470
v 0.509324 0.293909 0.429457
v 0.509324 0.472494 0.429457
vn -1.0000 -0.0000 -0.0000
vn -0.0000 -0.0000 -1.0000
vn 1.0000 -0.0000 -0.0000
vn -0.0000 -0.0000 1.0000
vn -0.0000 -1.0000 -0.0000
vn -0.0000 1.0000 -0.0000
vt 0.375000 0.000000
vt 0.375000 1.000000
vt 0.125000 0.750000
vt 0.625000 0.000000
vt 0.625000 1.000000
vt 0.875000 0.750000
vt 0.375000 0.250000
vt 0.125000 0.500000
vt 0.625000 0.250000
vt 0.875000 0.500000
vt 0.375000 0.750000
vt 0.625000 0.750000
vt 0.375000 0.500000
vt 0.625000 0.500000
s 0
usemtl Gris
f 17/29/7 18/32/7 20/37/7 19/35/7
f 19/35/8 20/37/8 24/42/8 23/41/8
f 23/41/9 24/42/9 22/40/9 21/39/9
f 21/39/10 22/40/10 18/33/10 17/30/10
f 19/36/11 23/41/11 21/39/11 17/31/11
f 24/42/12 20/38/12 18/34/12 22/40/12
o Cube.002
v -1.216749 -0.410258 1.565613
v -1.216749 -0.212640 1.565613
v -1.216749 -0.410258 0.434361
v -1.216749 -0.212640 0.434361
v -0.057748 -0.410258 1.565613
v -0.057748 -0.212640 1.565613
v -0.057748 -0.410258 0.434361
v -0.057748 -0.212640 0.434361
vn -1.0000 -0.0000 -0.0000
vn -0.0000 -0.0000 -1.0000
vn 1.0000 -0.0000 -0.0000
vn -0.0000 -0.0000 1.0000
vn -0.0000 -1.0000 -0.0000
vn -0.0000 1.0000 -0.0000
vt 0.375000 0.000000
vt 0.375000 1.000000
vt 0.125000 0.750000
vt 0.625000 0.000000
vt 0.625000 1.000000
vt 0.875000 0.750000
vt 0.375000 0.250000
vt 0.125000 0.500000
vt 0.625000 0.250000
vt 0.875000 0.500000
vt 0.375000 0.750000
vt 0.625000 0.750000
vt 0.375000 0.500000
vt 0.625000 0.500000
s 0
usemtl Gris
f 25/43/13 26/46/13 28/51/13 27/49/13
f 27/49/14 28/51/14 32/56/14 31/55/14
f 31/55/15 32/56/15 30/54/15 29/53/15
f 29/53/16 30/54/16 26/47/16 25/44/16
f 27/50/17 31/55/17 29/53/17 25/45/17
f 32/56/18 28/52/18 26/48/18 30/54/18
