# Blender 3.4.0
# www.blender.org
mtllib penguin.mtl
o Cube
v 1.000000 1.878597 -1.000000
v 1.000000 -1.878597 -1.000000
v 1.000000 1.878597 1.000000
v 1.000000 -1.878597 1.000000
v -1.000000 1.878597 -1.000000
v -1.000000 -1.878597 -1.000000
v -1.000000 1.878597 1.000000
v -1.000000 -1.878597 1.000000
vn -0.0000 1.0000 -0.0000
vn -0.0000 -0.0000 1.0000
vn -1.0000 -0.0000 -0.0000
vn -0.0000 -1.0000 -0.0000
vn 1.0000 -0.0000 -0.0000
vn -0.0000 -0.0000 -1.0000
vt 0.625000 0.500000
vt 0.375000 0.500000
vt 0.625000 0.750000
vt 0.375000 0.750000
vt 0.875000 0.500000
vt 0.625000 0.250000
vt 0.125000 0.500000
vt 0.375000 0.250000
vt 0.875000 0.750000
vt 0.625000 1.000000
vt 0.625000 0.000000
vt 0.375000 1.000000
vt 0.375000 0.000000
vt 0.125000 0.750000
s 0
usemtl Material
f 1/1/1 5/5/1 7/9/1 3/3/1
f 4/4/2 3/3/2 7/10/2 8/12/2
f 8/13/3 7/11/3 5/6/3 6/8/3
f 6/7/4 2/2/4 4/4/4 8/14/4
f 2/2/5 1/1/5 3/3/5 4/4/5
f 6/8/6 5/6/6 1/1/6 2/2/6
o Cube.001
v -0.989287 1.854293 0.989687
v -0.989287 2.069424 0.989687
v -0.989287 1.854293 -0.996014
v -0.989287 2.069424 -0.996014
v 0.989378 1.854293 0.989687
v 0.989378 2.069424 0.989687
v 0.989378 1.854293 -0.996014
v 0.989378 2.069424 -0.996014
vn -1.0000 -0.0000 -0.0000
vn -0.0000 -0.0000 -1.0000
vn 1.0000 -0.0000 -0.0000
vn -0.0000 -0.0000 1.0000
vn -0.0000 -1.0000 -0.0000
vn -0.0000 1.0000 -0.0000
vt 0.375000 0.000000
vt 0.375000 1.000000
vt 0.125000 0.750000
vt 0.625000 0.000000
vt 0.625000 1.000000
vt 0.875000 0.750000
vt 0.375000 0.250000
vt 0.125000 0.500000
vt 0.625000 0.250000
vt 0.875000 0.500000
vt 0.375000 0.750000
vt 0.625000 0.750000
vt 0.375000 0.500000
vt 0.625000 0.500000
s 0
usemtl Material.001
f 9/15/7 10/18/7 12/23/7 11/21/7
f 11/21/8 12/23/8 16/28/8 15/27/8
f 15/27/9 16/28/9 14/26/9 13/25/9
f 13/25/10 14/26/10 10/19/10 9/16/10
f 11/22/11 15/27/11 13/25/11 9/17/11
f 16/28/12 12/24/12 10/20/12 14/26/12
o Cube.002
v -0.983296 2.076810 1.016235
v -0.983296 3.373527 1.016235
v -0.983296 2.076810 -0.969465
v -0.983296 3.373527 -0.969465
v 0.995369 2.076810 1.016235
v 0.995369 3.373527 1.016235
v 0.995369 2.076810 -0.969465
v 0.995369 3.373527 -0.969465
vn -1.0000 -0.0000 -0.0000
vn -0.0000 -0.0000 -1.0000
vn 1.0000 -0.0000 -0.0000
vn -0.0000 -0.0000 1.0000
vn -0.0000 -1.0000 -0.0000
vn -0.0000 1.0000 -0.0000
vt 0.375000 0.000000
vt 0.375000 1.000000
vt 0.125000 0.750000
vt 0.625000 0.000000
vt 0.625000 1.000000
vt 0.875000 0.750000
vt 0.375000 0.250000
vt 0.125000 0.500000
vt 0.625000 0.250000
vt 0.875000 0.500000
vt 0.375000 0.750000
vt 0.625000 0.750000
vt 0.375000 0.500000
vt 0.625000 0.500000
s 0
usemtl Material.002
f 17/29/13 18/32/13 20/37/13 19/35/13
f 19/35/14 20/37/14 24/42/14 23/41/14
f 23/41/15 24/42/15 22/40/15 21/39/15
f 21/39/16 22/40/16 18/33/16 17/30/16
f 19/36/17 23/41/17 21/39/17 17/31/17
f 24/42/18 20/38/18 18/34/18 22/40/18
o Cube.003
v -0.221858 2.953337 -0.662096
v -0.221858 2.518460 -0.662096
v -0.221858 2.953337 -1.447592
v -0.221858 2.518460 -1.447592
v 0.329225 2.953337 -0.662096
v 0.329225 2.518460 -0.662096
v 0.329225 2.953337 -1.447592
v 0.329225 2.518460 -1.447592
vn -1.0000 -0.0000 -0.0000
vn -0.0000 -0.0000 -1.0000
vn 1.0000 -0.0000 -0.0000
vn -0.0000 -0.0000 1.0000
vn -0.0000 1.0000 -0.0000
vn -0.0000 -1.0000 -0.0000
vt 0.375000 0.000000
vt 0.375000 1.000000
vt 0.125000 0.750000
vt 0.625000 0.000000
vt 0.625000 1.000000
vt 0.875000 0.750000
vt 0.375000 0.250000
vt 0.125000 0.500000
vt 0.625000 0.250000
vt 0.875000 0.500000
vt 0.375000 0.750000
vt 0.625000 0.750000
vt 0.375000 0.500000
vt 0.625000 0.500000
s 0
usemtl Material.003
f 25/43/19 27/49/19 28/51/19 26/46/19
f 27/49/20 31/55/20 32/56/20 28/51/20
f 31/55/21 29/53/21 30/54/21 32/56/21
f 29/53/22 25/44/22 26/47/22 30/54/22
f 27/50/23 25/45/23 29/53/23 31/55/23
f 32/56/24 30/54/24 26/48/24 28/52/24
o Cube.004
v -1.403395 2.999179 -0.374571
v -1.403395 2.884134 -0.374571
v -1.403395 2.999179 -0.543912
v -1.403395 2.884134 -0.543912
v -0.587427 2.999179 -0.374571
v -0.587427 2.884134 -0.374571
v -0.587427 2.999179 -0.543912
v -0.587427 2.884134 -0.543912
vn -1.0000 -0.0000 -0.0000
vn -0.0000 -0.0000 -1.0000
vn 1.0000 -0.0000 -0.0000
vn -0.0000 -0.0000 1.0000
vn -0.0000 1.0000 -0.0000
vn -0.0000 -1.0000 -0.0000
vt 0.375000 0.000000
vt 0.375000 1.000000
vt 0.125000 0.750000
vt 0.625000 0.000000
vt 0.625000 1.000000
vt 0.875000 0.750000
vt 0.375000 0.250000
vt 0.125000 0.500000
vt 0.625000 0.250000
vt 0.875000 0.500000
vt 0.375000 0.750000
vt 0.625000 0.750000
vt 0.375000 0.500000
vt 0.625000 0.500000
s 0
usemtl Material.012
f 33/57/25 35/63/25 36/65/25 34/60/25
f 35/63/26 39/69/26 40/70/26 36/65/26
f 39/69/27 37/67/27 38/68/27 40/70/27
f 37/67/28 33/58/28 34/61/28 38/68/28
f 35/64/29 33/59/29 37/67/29 39/69/29
f 40/70/30 38/68/30 34/62/30 36/66/30
o Cube.005
v -1.302072 3.185167 -0.177943
v -1.302072 2.698146 -0.177943
v -1.302072 3.185167 -0.740540
v -1.302072 2.698146 -0.740540
v -0.688751 3.185167 -0.177943
v -0.688751 2.698146 -0.177943
v -0.688751 3.185167 -0.740540
v -0.688751 2.698146 -0.740540
vn -1.0000 -0.0000 -0.0000
vn -0.0000 -0.0000 -1.0000
vn 1.0000 -0.0000 -0.0000
vn -0.0000 -0.0000 1.0000
vn -0.0000 1.0000 -0.0000
vn -0.0000 -1.0000 -0.0000
vt 0.375000 0.000000
vt 0.375000 1.000000
vt 0.125000 0.750000
vt 0.625000 0.000000
vt 0.625000 1.000000
vt 0.875000 0.750000
vt 0.375000 0.250000
vt 0.125000 0.500000
vt 0.625000 0.250000
vt 0.875000 0.500000
vt 0.375000 0.750000
vt 0.625000 0.750000
vt 0.375000 0.500000
vt 0.625000 0.500000
s 0
usemtl Material.004
f 41/71/31 43/77/31 44/79/31 42/74/31
f 43/77/32 47/83/32 48/84/32 44/79/32
f 47/83/33 45/81/33 46/82/33 48/84/33
f 45/81/34 41/72/34 42/75/34 46/82/34
f 43/78/35 41/73/35 45/81/35 47/83/35
f 48/84/36 46/82/36 42/76/36 44/80/36
o Cube.006
v -1.412788 1.602991 0.307009
v -1.412788 -0.749380 0.307009
v -1.412788 1.602991 -0.478487
v -1.412788 -0.749380 -0.478487
v -0.861705 1.602991 0.307009
v -0.861705 -0.749380 0.307009
v -0.861705 1.602991 -0.478487
v -0.861705 -0.749380 -0.478487
vn -1.0000 -0.0000 -0.0000
vn -0.0000 -0.0000 -1.0000
vn 1.0000 -0.0000 -0.0000
vn -0.0000 -0.0000 1.0000
vn -0.0000 1.0000 -0.0000
vn -0.0000 -1.0000 -0.0000
vt 0.375000 0.000000
vt 0.375000 1.000000
vt 0.125000 0.750000
vt 0.625000 0.000000
vt 0.625000 1.000000
vt 0.875000 0.750000
vt 0.375000 0.250000
vt 0.125000 0.500000
vt 0.625000 0.250000
vt 0.875000 0.500000
vt 0.375000 0.750000
vt 0.625000 0.750000
vt 0.375000 0.500000
vt 0.625000 0.500000
s 0
usemtl Material.005
f 49/85/37 51/91/37 52/93/37 50/88/37
f 51/91/38 55/97/38 56/98/38 52/93/38
f 55/97/39 53/95/39 54/96/39 56/98/39
f 53/95/40 49/86/40 50/89/40 54/96/40
f 51/92/41 49/87/41 53/95/41 55/97/41
f 56/98/42 54/96/42 50/90/42 52/94/42
o Cube.007
v -0.649065 -2.194093 0.482622
v -0.649065 -2.385645 0.482622
v -0.649065 -2.194093 -0.825341
v -0.649065 -2.385645 -0.825341
v -0.097981 -2.194093 0.482622
v -0.097981 -2.385645 0.482622
v -0.097981 -2.194093 -0.825341
v -0.097981 -2.385645 -0.825341
vn -1.0000 -0.0000 -0.0000
vn -0.0000 -0.0000 -1.0000
vn 1.0000 -0.0000 -0.0000
vn -0.0000 -0.0000 1.0000
vn -0.0000 1.0000 -0.0000
vn -0.0000 -1.0000 -0.0000
vt 0.375000 0.000000
vt 0.375000 1.000000
vt 0.125000 0.750000
vt 0.625000 0.000000
vt 0.625000 1.000000
vt 0.875000 0.750000
vt 0.375000 0.250000
vt 0.125000 0.500000
vt 0.625000 0.250000
vt 0.875000 0.500000
vt 0.375000 0.750000
vt 0.625000 0.750000
vt 0.375000 0.500000
vt 0.625000 0.500000
s 0
usemtl Material.007
f 57/99/43 59/105/43 60/107/43 58/102/43
f 59/105/44 63/111/44 64/112/44 60/107/44
f 63/111/45 61/109/45 62/110/45 64/112/45
f 61/109/46 57/100/46 58/103/46 62/110/46
f 59/106/47 57/101/47 61/109/47 63/111/47
f 64/112/48 62/110/48 58/104/48 60/108/48
o Cube.008
v 0.260402 -2.194093 0.482622
v 0.260402 -2.385645 0.482622
v 0.260402 -2.194093 -0.825341
v 0.260402 -2.385645 -0.825341
v 0.811485 -2.194093 0.482622
v 0.811485 -2.385645 0.482622
v 0.811485 -2.194093 -0.825341
v 0.811485 -2.385645 -0.825341
vn -1.0000 -0.0000 -0.0000
vn -0.0000 -0.0000 -1.0000
vn 1.0000 -0.0000 -0.0000
vn -0.0000 -0.0000 1.0000
vn -0.0000 1.0000 -0.0000
vn -0.0000 -1.0000 -0.0000
vt 0.375000 0.000000
vt 0.375000 1.000000
vt 0.125000 0.750000
vt 0.625000 0.000000
vt 0.625000 1.000000
vt 0.875000 0.750000
vt 0.375000 0.250000
vt 0.125000 0.500000
vt 0.625000 0.250000
vt 0.875000 0.500000
vt 0.375000 0.750000
vt 0.625000 0.750000
vt 0.375000 0.500000
vt 0.625000 0.500000
s 0
usemtl Material.006
f 65/113/49 67/119/49 68/121/49 66/116/49
f 67/119/50 71/125/50 72/126/50 68/121/50
f 71/125/51 69/123/51 70/124/51 72/126/51
f 69/123/52 65/114/52 66/117/52 70/124/52
f 67/120/53 65/115/53 69/123/53 71/125/53
f 72/126/54 70/124/54 66/118/54 68/122/54
o Cube.009
v -0.218551 -2.297958 0.086335
v -0.218551 -1.778109 0.086335
v -0.218551 -2.297958 -0.216685
v -0.218551 -1.778109 -0.216685
v -0.397440 -2.297958 0.086335
v -0.397440 -1.778109 0.086335
v -0.397440 -2.297958 -0.216685
v -0.397440 -1.778109 -0.216685
vn 1.0000 -0.0000 -0.0000
vn -0.0000 -0.0000 -1.0000
vn -1.0000 -0.0000 -0.0000
vn -0.0000 -0.0000 1.0000
vn -0.0000 -1.0000 -0.0000
vn -0.0000 1.0000 -0.0000
vt 0.375000 0.000000
vt 0.375000 1.000000
vt 0.125000 0.750000
vt 0.625000 0.000000
vt 0.625000 1.000000
vt 0.875000 0.750000
vt 0.375000 0.250000
vt 0.125000 0.500000
vt 0.625000 0.250000
vt 0.875000 0.500000
vt 0.375000 0.750000
vt 0.625000 0.750000
vt 0.375000 0.500000
vt 0.625000 0.500000
s 0
usemtl Material.009
f 73/127/55 75/133/55 76/135/55 74/130/55
f 75/133/56 79/139/56 80/140/56 76/135/56
f 79/139/57 77/137/57 78/138/57 80/140/57
f 77/137/58 73/128/58 74/131/58 78/138/58
f 75/134/59 73/129/59 77/137/59 79/139/59
f 80/140/60 78/138/60 74/132/60 76/136/60
o Cube.010
v 0.571862 -2.297958 0.086335
v 0.571862 -1.778109 0.086335
v 0.571862 -2.297958 -0.216685
v 0.571862 -1.778109 -0.216685
v 0.392973 -2.297958 0.086335
v 0.392973 -1.778109 0.086335
v 0.392973 -2.297958 -0.216685
v 0.392973 -1.778109 -0.216685
vn 1.0000 -0.0000 -0.0000
vn -0.0000 -0.0000 -1.0000
vn -1.0000 -0.0000 -0.0000
vn -0.0000 -0.0000 1.0000
vn -0.0000 -1.0000 -0.0000
vn -0.0000 1.0000 -0.0000
vt 0.375000 0.000000
vt 0.375000 1.000000
vt 0.125000 0.750000
vt 0.625000 0.000000
vt 0.625000 1.000000
vt 0.875000 0.750000
vt 0.375000 0.250000
vt 0.125000 0.500000
vt 0.625000 0.250000
vt 0.875000 0.500000
vt 0.375000 0.750000
vt 0.625000 0.750000
vt 0.375000 0.500000
vt 0.625000 0.500000
s 0
usemtl Material.008
f 81/141/61 83/147/61 84/149/61 82/144/61
f 83/147/62 87/153/62 88/154/62 84/149/62
f 87/153/63 85/151/63 86/152/63 88/154/63
f 85/151/64 81/142/64 82/145/64 86/152/64
f 83/148/65 81/143/65 85/151/65 87/153/65
f 88/154/66 86/152/66 82/146/66 84/150/66
o Cube.012
v 0.659208 3.185167 -0.177943
v 0.659208 2.698146 -0.177943
v 0.659208 3.185167 -0.740540
v 0.659208 2.698146 -0.740540
v 1.272529 3.185167 -0.177943
v 1.272529 2.698146 -0.177943
v 1.272529 3.185167 -0.740540
v 1.272529 2.698146 -0.740540
vn -1.0000 -0.0000 -0.0000
vn -0.0000 -0.0000 -1.0000
vn 1.0000 -0.0000 -0.0000
vn -0.0000 -0.0000 1.0000
vn -0.0000 1.0000 -0.0000
vn -0.0000 -1.0000 -0.0000
vt 0.375000 0.000000
vt 0.375000 1.000000
vt 0.125000 0.750000
vt 0.625000 0.000000
vt 0.625000 1.000000
vt 0.875000 0.750000
vt 0.375000 0.250000
vt 0.125000 0.500000
vt 0.625000 0.250000
vt 0.875000 0.500000
vt 0.375000 0.750000
vt 0.625000 0.750000
vt 0.375000 0.500000
vt 0.625000 0.500000
s 0
f 89/155/67 91/161/67 92/163/67 90/158/67
f 91/161/68 95/167/68 96/168/68 92/163/68
f 95/167/69 93/165/69 94/166/69 96/168/69
f 93/165/70 89/156/70 90/159/70 94/166/70
f 91/162/71 89/157/71 93/165/71 95/167/71
f 96/168/72 94/166/72 90/160/72 92/164/72
o Cube.013
v 0.573333 2.999179 -0.374571
v 0.573333 2.884134 -0.374571
v 0.573333 2.999179 -0.543912
v 0.573333 2.884134 -0.543912
v 1.389301 2.999179 -0.374571
v 1.389301 2.884134 -0.374571
v 1.389301 2.999179 -0.543912
v 1.389301 2.884134 -0.543912
vn -1.0000 -0.0000 -0.0000
vn -0.0000 -0.0000 -1.0000
vn 1.0000 -0.0000 -0.0000
vn -0.0000 -0.0000 1.0000
vn -0.0000 1.0000 -0.0000
vn -0.0000 -1.0000 -0.0000
vt 0.375000 0.000000
vt 0.375000 1.000000
vt 0.125000 0.750000
vt 0.625000 0.000000
vt 0.625000 1.000000
vt 0.875000 0.750000
vt 0.375000 0.250000
vt 0.125000 0.500000
vt 0.625000 0.250000
vt 0.875000 0.500000
vt 0.375000 0.750000
vt 0.625000 0.750000
vt 0.375000 0.500000
vt 0.625000 0.500000
s 0
usemtl Material.011
f 97/169/73 99/175/73 100/177/73 98/172/73
f 99/175/74 103/181/74 104/182/74 100/177/74
f 103/181/75 101/179/75 102/180/75 104/182/75
f 101/179/76 97/170/76 98/173/76 102/180/76
f 99/176/77 97/171/77 101/179/77 103/181/77
f 104/182/78 102/180/78 98/174/78 100/178/78
o Cube.014
v -0.528508 0.348727 1.623073
v -0.528508 -1.423181 1.623073
v -0.528508 0.348727 0.627173
v -0.528508 -1.423181 0.627173
v 0.588663 0.348727 1.623073
v 0.588663 -1.423181 1.623073
v 0.588663 0.348727 0.627173
v 0.588663 -1.423181 0.627173
vn -1.0000 -0.0000 -0.0000
vn -0.0000 -0.0000 -1.0000
vn 1.0000 -0.0000 -0.0000
vn -0.0000 -0.0000 1.0000
vn -0.0000 1.0000 -0.0000
vn -0.0000 -1.0000 -0.0000
vt 0.375000 0.000000
vt 0.375000 1.000000
vt 0.125000 0.750000
vt 0.625000 0.000000
vt 0.625000 1.000000
vt 0.875000 0.750000
vt 0.375000 0.250000
vt 0.125000 0.500000
vt 0.625000 0.250000
vt 0.875000 0.500000
vt 0.375000 0.750000
vt 0.625000 0.750000
vt 0.375000 0.500000
vt 0.625000 0.500000
s 0
usemtl Material.013
f 105/183/79 107/189/79 108/191/79 106/186/79
f 107/189/80 111/195/80 112/196/80 108/191/80
f 111/195/81 109/193/81 110/194/81 112/196/81
f 109/193/82 105/184/82 106/187/82 110/194/82
f 107/190/83 105/185/83 109/193/83 111/195/83
f 112/196/84 110/194/84 106/188/84 108/192/84
o Cube.011
v 0.806935 1.602991 0.307009
v 0.806935 -0.749380 0.307009
v 0.806935 1.602991 -0.478487
v 0.806935 -0.749380 -0.478487
v 1.358018 1.602991 0.307009
v 1.358018 -0.749380 0.307009
v 1.358018 1.602991 -0.478487
v 1.358018 -0.749380 -0.478487
vn -1.0000 -0.0000 -0.0000
vn -0.0000 -0.0000 -1.0000
vn 1.0000 -0.0000 -0.0000
vn -0.0000 -0.0000 1.0000
vn -0.0000 1.0000 -0.0000
vn -0.0000 -1.0000 -0.0000
vt 0.375000 0.000000
vt 0.375000 1.000000
vt 0.125000 0.750000
vt 0.625000 0.000000
vt 0.625000 1.000000
vt 0.875000 0.750000
vt 0.375000 0.250000
vt 0.125000 0.500000
vt 0.625000 0.250000
vt 0.875000 0.500000
vt 0.375000 0.750000
vt 0.625000 0.750000
vt 0.375000 0.500000
vt 0.625000 0.500000
s 0
usemtl Material.014
f 113/197/85 115/203/85 116/205/85 114/200/85
f 115/203/86 119/209/86 120/210/86 116/205/86
f 119/209/87 117/207/87 118/208/87 120/210/87
f 117/207/88 113/198/88 114/201/88 118/208/88
f 115/204/89 113/199/89 117/207/89 119/209/89
f 120/210/90 118/208/90 114/202/90 116/206/90
