# Blender 3.4.0
# www.blender.org
mtllib Carro.mtl
o CarroCuerpo
v 4.224454 0.833375 -2.226860
v 4.224454 -0.833375 -2.226860
v 4.224454 0.833375 2.226860
v 4.224454 -0.833375 2.226860
v -4.224454 0.833375 -2.226860
v -4.224454 -0.833375 -2.226860
v -4.224454 0.833375 2.226860
v -4.224454 -0.833375 2.226860
v 1.404911 2.494553 -1.836109
v 1.404911 0.827803 -1.836109
v 1.404911 2.494553 1.836109
v 1.404911 0.827803 1.836109
v -3.669207 2.494553 -1.836109
v -3.669207 0.827803 -1.836109
v -3.669207 2.494553 1.836109
v -3.669207 0.827803 1.836109
v 4.224454 -1.174288 -2.226860
v 4.224454 -1.174288 2.226860
v -4.224454 -1.174288 -2.226860
v -4.224454 -1.174288 2.226860
vn -0.0000 -1.0000 -0.0000
vn -0.0000 -0.0000 -1.0000
vn 1.0000 -0.0000 -0.0000
vn -1.0000 -0.0000 -0.0000
vn -0.0000 -0.0000 1.0000
vn -0.0000 1.0000 -0.0000
vt 0.625000 0.500000
vt 0.375000 0.500000
vt 0.625000 0.750000
vt 0.375000 0.750000
vt 0.875000 0.500000
vt 0.625000 0.250000
vt 0.375000 0.250000
vt 0.875000 0.750000
vt 0.625000 1.000000
vt 0.625000 0.000000
vt 0.375000 1.000000
vt 0.375000 0.000000
vt 0.625000 0.500000
vt 0.375000 0.500000
vt 0.625000 0.750000
vt 0.375000 0.750000
vt 0.875000 0.500000
vt 0.625000 0.250000
vt 0.125000 0.500000
vt 0.375000 0.250000
vt 0.875000 0.750000
vt 0.625000 1.000000
vt 0.625000 0.000000
vt 0.375000 1.000000
vt 0.375000 0.000000
vt 0.125000 0.750000
vt 0.375000 0.500000
vt 0.375000 0.750000
vt 0.125000 0.500000
vt 0.375000 0.250000
vt 0.375000 1.000000
vt 0.125000 0.750000
vt 0.375000 0.000000
s 0
usemtl Verde
f 1/1/1 3/3/1 7/8/1 5/5/1
f 4/4/2 8/11/2 7/9/2 3/3/2
f 8/12/3 6/7/3 5/6/3 7/10/3
f 2/2/4 4/4/4 3/3/4 1/1/4
f 6/7/5 2/2/5 1/1/5 5/6/5
f 14/19/1 10/14/1 12/16/1 16/26/1
usemtl Blanco
f 9/13/6 13/17/6 15/21/6 11/15/6
f 12/16/5 11/15/5 15/22/5 16/24/5
f 16/25/4 15/23/4 13/18/4 14/20/4
f 10/14/3 9/13/3 11/15/3 12/16/3
f 14/20/2 13/18/2 9/13/2 10/14/2
usemtl Gris.001
f 8/11/2 4/4/2 18/28/2 20/31/2
f 19/29/6 20/32/6 18/28/6 17/27/6
f 6/7/3 8/12/3 20/33/3 19/30/3
f 4/4/4 2/2/4 17/27/4 18/28/4
f 2/2/5 6/7/5 19/30/5 17/27/5
o VentanaDelantera
v 1.412773 2.059570 1.358166
v 1.412773 0.822178 1.358166
v 1.412773 2.059570 -1.324111
v 1.412773 0.822178 -1.324111
vn 1.0000 -0.0000 -0.0000
vt 0.000000 0.000000
vt 1.000000 0.000000
vt 0.000000 1.000000
vt 1.000000 1.000000
s 0
usemtl Negro.004
f 21/34/7 22/35/7 24/37/7 23/36/7
o Rueda
v 2.120346 -1.735549 -1.956750
v 2.120346 -0.480657 -1.956750
v 2.120346 -1.735549 -2.497492
v 2.120346 -0.480657 -2.497492
v 3.375238 -1.735549 -1.956750
v 3.375238 -0.480657 -1.956750
v 3.375238 -1.735549 -2.497492
v 3.375238 -0.480657 -2.497492
v 2.491017 -1.342463 -2.353796
v 2.491017 -0.877069 -2.353796
v 2.491017 -1.342463 -2.550197
v 2.491017 -0.877069 -2.550197
v 2.956411 -1.342463 -2.353796
v 2.956411 -0.877069 -2.353796
v 2.956411 -1.342463 -2.550197
v 2.956411 -0.877069 -2.550197
vn 1.0000 -0.0000 -0.0000
vn -0.0000 -0.0000 1.0000
vn -1.0000 -0.0000 -0.0000
vn -0.0000 -0.0000 -1.0000
vn -0.0000 1.0000 -0.0000
vn -0.0000 -1.0000 -0.0000
vt 0.375000 0.000000
vt 0.375000 1.000000
vt 0.125000 0.750000
vt 0.625000 0.000000
vt 0.625000 1.000000
vt 0.875000 0.750000
vt 0.375000 0.250000
vt 0.125000 0.500000
vt 0.625000 0.250000
vt 0.875000 0.500000
vt 0.375000 0.750000
vt 0.625000 0.750000
vt 0.375000 0.500000
vt 0.625000 0.500000
vt 0.375000 0.000000
vt 0.375000 1.000000
vt 0.125000 0.750000
vt 0.625000 0.000000
vt 0.625000 1.000000
vt 0.875000 0.750000
vt 0.375000 0.250000
vt 0.125000 0.500000
vt 0.625000 0.250000
vt 0.875000 0.500000
vt 0.375000 0.750000
vt 0.625000 0.750000
vt 0.375000 0.500000
vt 0.625000 0.500000
s 0
usemtl Negro
f 25/38/8 27/44/8 28/46/8 26/41/8
f 27/44/9 31/50/9 32/51/9 28/46/9
f 31/50/10 29/48/10 30/49/10 32/51/10
f 29/48/11 25/39/11 26/42/11 30/49/11
f 27/45/12 25/40/12 29/48/12 31/50/12
f 32/51/13 30/49/13 26/43/13 28/47/13
f 33/52/10 34/55/10 36/60/10 35/58/10
f 39/64/8 40/65/8 38/63/8 37/62/8
f 37/62/9 38/63/9 34/56/9 33/53/9
f 35/59/13 39/64/13 37/62/13 33/54/13
f 40/65/12 36/61/12 34/57/12 38/63/12
usemtl Gris
f 35/58/11 36/60/11 40/65/11 39/64/11
o Rueda.001
v -3.329580 -1.735549 -1.956750
v -3.329580 -0.480657 -1.956750
v -3.329580 -1.735549 -2.497492
v -3.329580 -0.480657 -2.497492
v -2.074688 -1.735549 -1.956750
v -2.074688 -0.480657 -1.956750
v -2.074688 -1.735549 -2.497492
v -2.074688 -0.480657 -2.497492
v -2.958909 -1.342463 -2.353796
v -2.958909 -0.877069 -2.353796
v -2.958909 -1.342463 -2.550197
v -2.958909 -0.877069 -2.550197
v -2.493515 -1.342463 -2.353796
v -2.493515 -0.877069 -2.353796
v -2.493515 -1.342463 -2.550197
v -2.493515 -0.877069 -2.550197
vn 1.0000 -0.0000 -0.0000
vn -0.0000 -0.0000 1.0000
vn -1.0000 -0.0000 -0.0000
vn -0.0000 -0.0000 -1.0000
vn -0.0000 1.0000 -0.0000
vn -0.0000 -1.0000 -0.0000
vt 0.375000 0.000000
vt 0.375000 1.000000
vt 0.125000 0.750000
vt 0.625000 0.000000
vt 0.625000 1.000000
vt 0.875000 0.750000
vt 0.375000 0.250000
vt 0.125000 0.500000
vt 0.625000 0.250000
vt 0.875000 0.500000
vt 0.375000 0.750000
vt 0.625000 0.750000
vt 0.375000 0.500000
vt 0.625000 0.500000
vt 0.375000 0.000000
vt 0.375000 1.000000
vt 0.125000 0.750000
vt 0.625000 0.000000
vt 0.625000 1.000000
vt 0.875000 0.750000
vt 0.375000 0.250000
vt 0.125000 0.500000
vt 0.625000 0.250000
vt 0.875000 0.500000
vt 0.375000 0.750000
vt 0.625000 0.750000
vt 0.375000 0.500000
vt 0.625000 0.500000
s 0
usemtl Negro.001
f 41/66/14 43/72/14 44/74/14 42/69/14
f 43/72/15 47/78/15 48/79/15 44/74/15
f 47/78/16 45/76/16 46/77/16 48/79/16
f 45/76/17 41/67/17 42/70/17 46/77/17
f 43/73/18 41/68/18 45/76/18 47/78/18
f 48/79/19 46/77/19 42/71/19 44/75/19
f 49/80/16 50/83/16 52/88/16 51/86/16
f 55/92/14 56/93/14 54/91/14 53/90/14
f 53/90/15 54/91/15 50/84/15 49/81/15
f 51/87/19 55/92/19 53/90/19 49/82/19
f 56/93/18 52/89/18 50/85/18 54/91/18
usemtl Gris.002
f 51/86/17 52/88/17 56/93/17 55/92/17
o Rueda.002
v 3.381936 -1.735549 2.054717
v 3.381936 -0.480657 2.054717
v 3.368130 -1.735549 2.595283
v 3.368130 -0.480657 2.595283
v 2.127454 -1.735549 2.022677
v 2.127454 -0.480657 2.022677
v 2.113648 -1.735549 2.563243
v 2.113648 -0.480657 2.563243
v 3.001249 -1.342463 2.442169
v 3.001249 -0.877069 2.442169
v 2.996235 -1.342463 2.638506
v 2.996235 -0.877069 2.638506
v 2.536007 -1.342463 2.430286
v 2.536007 -0.877069 2.430286
v 2.530992 -1.342463 2.626624
v 2.530992 -0.877069 2.626624
vn -0.9997 -0.0000 -0.0255
vn 0.0255 -0.0000 -0.9997
vn 0.9997 -0.0000 0.0255
vn -0.0255 -0.0000 0.9997
vn -0.0000 1.0000 -0.0000
vn -0.0000 -1.0000 -0.0000
vt 0.375000 0.000000
vt 0.375000 1.000000
vt 0.125000 0.750000
vt 0.625000 0.000000
vt 0.625000 1.000000
vt 0.875000 0.750000
vt 0.375000 0.250000
vt 0.125000 0.500000
vt 0.625000 0.250000
vt 0.875000 0.500000
vt 0.375000 0.750000
vt 0.625000 0.750000
vt 0.375000 0.500000
vt 0.625000 0.500000
vt 0.375000 0.000000
vt 0.375000 1.000000
vt 0.125000 0.750000
vt 0.625000 0.000000
vt 0.625000 1.000000
vt 0.875000 0.750000
vt 0.375000 0.250000
vt 0.125000 0.500000
vt 0.625000 0.250000
vt 0.875000 0.500000
vt 0.375000 0.750000
vt 0.625000 0.750000
vt 0.375000 0.500000
vt 0.625000 0.500000
s 0
usemtl Negro.002
f 57/94/20 59/100/20 60/102/20 58/97/20
f 59/100/21 63/106/21 64/107/21 60/102/21
f 63/106/22 61/104/22 62/105/22 64/107/22
f 61/104/23 57/95/23 58/98/23 62/105/23
f 59/101/24 57/96/24 61/104/24 63/106/24
f 64/107/25 62/105/25 58/99/25 60/103/25
f 65/108/22 66/111/22 68/116/22 67/114/22
f 71/120/20 72/121/20 70/119/20 69/118/20
f 69/118/21 70/119/21 66/112/21 65/109/21
f 67/115/25 71/120/25 69/118/25 65/110/25
f 72/121/24 68/117/24 66/113/24 70/119/24
usemtl Gris.003
f 67/114/23 68/116/23 72/121/23 71/120/23
o Rueda.003
v -2.027888 -1.735549 2.054717
v -2.027888 -0.480657 2.054717
v -2.041694 -1.735549 2.595283
v -2.041694 -0.480657 2.595283
v -3.282370 -1.735549 2.022677
v -3.282370 -0.480657 2.022677
v -3.296176 -1.735549 2.563243
v -3.296176 -0.480657 2.563243
v -2.408575 -1.342463 2.442169
v -2.408575 -0.877069 2.442169
v -2.413589 -1.342463 2.638506
v -2.413589 -0.877069 2.638506
v -2.873817 -1.342463 2.430286
v -2.873817 -0.877069 2.430286
v -2.878832 -1.342463 2.626624
v -2.878832 -0.877069 2.626624
vn -0.9997 -0.0000 -0.0255
vn 0.0255 -0.0000 -0.9997
vn 0.9997 -0.0000 0.0255
vn -0.0255 -0.0000 0.9997
vn -0.0000 1.0000 -0.0000
vn -0.0000 -1.0000 -0.0000
vt 0.375000 0.000000
vt 0.375000 1.000000
vt 0.125000 0.750000
vt 0.625000 0.000000
vt 0.625000 1.000000
vt 0.875000 0.750000
vt 0.375000 0.250000
vt 0.125000 0.500000
vt 0.625000 0.250000
vt 0.875000 0.500000
vt 0.375000 0.750000
vt 0.625000 0.750000
vt 0.375000 0.500000
vt 0.625000 0.500000
vt 0.375000 0.000000
vt 0.375000 1.000000
vt 0.125000 0.750000
vt 0.625000 0.000000
vt 0.625000 1.000000
vt 0.875000 0.750000
vt 0.375000 0.250000
vt 0.125000 0.500000
vt 0.625000 0.250000
vt 0.875000 0.500000
vt 0.375000 0.750000
vt 0.625000 0.750000
vt 0.375000 0.500000
vt 0.625000 0.500000
s 0
usemtl Negro.003
f 73/122/26 75/128/26 76/130/26 74/125/26
f 75/128/27 79/134/27 80/135/27 76/130/27
f 79/134/28 77/132/28 78/133/28 80/135/28
f 77/132/29 73/123/29 74/126/29 78/133/29
f 75/129/30 73/124/30 77/132/30 79/134/30
f 80/135/31 78/133/31 74/127/31 76/131/31
f 81/136/28 82/139/28 84/144/28 83/142/28
f 87/148/26 88/149/26 86/147/26 85/146/26
f 85/146/27 86/147/27 82/140/27 81/137/27
f 83/143/31 87/148/31 85/146/31 81/138/31
f 88/149/30 84/145/30 82/141/30 86/147/30
usemtl Gris.004
f 83/142/29 84/144/29 88/149/29 87/148/29
o VentanaLateralR
v -1.067322 1.118325 1.900918
v 0.932678 1.118325 1.900918
v -1.067322 2.148796 1.900918
v 0.932678 2.148796 1.900918
vn -0.0000 -0.0000 1.0000
vt 0.000000 0.000000
vt 1.000000 0.000000
vt 0.000000 1.000000
vt 1.000000 1.000000
s 0
usemtl Negro
f 89/150/32 90/151/32 92/153/32 91/152/32
o VentanaLateralR.001
v -3.305865 1.118325 1.900918
v -1.305865 1.118325 1.900918
v -3.305865 2.148796 1.900918
v -1.305865 2.148796 1.900918
vn -0.0000 -0.0000 1.0000
vt 0.000000 0.000000
vt 1.000000 0.000000
vt 0.000000 1.000000
vt 1.000000 1.000000
s 0
usemtl Negro.005
f 93/154/33 94/155/33 96/157/33 95/156/33
o VentanaLateralL
v -0.836919 2.139975 -1.874076
v 1.163081 2.139975 -1.874076
v -0.836919 1.067091 -1.874076
v 1.163081 1.067091 -1.874076
vn -0.0000 -0.0000 -1.0000
vt 0.000000 0.000000
vt 1.000000 0.000000
vt 0.000000 1.000000
vt 1.000000 1.000000
s 0
usemtl Negro
f 97/158/34 98/159/34 100/161/34 99/160/34
o VentanaLateralL.001
v -3.215737 2.139975 -1.874076
v -1.215737 2.139975 -1.874076
v -3.215737 1.067091 -1.874076
v -1.215737 1.067091 -1.874076
vn -0.0000 -0.0000 -1.0000
vt 0.000000 0.000000
vt 1.000000 0.000000
vt 0.000000 1.000000
vt 1.000000 1.000000
s 0
usemtl Negro.006
f 101/162/35 102/163/35 104/165/35 103/164/35
o VentanaAtras
v -3.735159 2.267893 1.440897
v -3.735159 0.952381 1.440897
v -3.735159 2.267893 -1.561234
v -3.735159 0.952381 -1.561234
vn 1.0000 -0.0000 -0.0000
vt 0.000000 0.000000
vt 1.000000 0.000000
vt 0.000000 1.000000
vt 1.000000 1.000000
s 0
usemtl Negro
f 105/166/36 106/167/36 108/169/36 107/168/36
o FaroDelantero
v 4.224836 0.446495 1.971635
v 4.224836 -0.457564 1.971635
v 4.224836 0.446495 1.067576
v 4.224836 -0.457564 1.067576
vn 1.0000 -0.0000 -0.0000
vt 0.000000 0.000000
vt 1.000000 0.000000
vt 0.000000 1.000000
vt 1.000000 1.000000
s 0
usemtl Amarillo
f 109/170/37 110/171/37 112/173/37 111/172/37
o FaroDelantero.001
v 4.224836 0.446495 -1.031548
v 4.224836 -0.457564 -1.031548
v 4.224836 0.446495 -1.935607
v 4.224836 -0.457564 -1.935607
vn 1.0000 -0.0000 -0.0000
vt 0.000000 0.000000
vt 1.000000 0.000000
vt 0.000000 1.000000
vt 1.000000 1.000000
s 0
usemtl Amarillo.001
f 113/174/38 114/175/38 116/177/38 115/176/38
o FaroTrasero
v -4.236318 0.384716 -1.158414
v -4.236318 -0.338495 -1.158414
v -4.236318 0.384716 -1.881624
v -4.236318 -0.338495 -1.881624
vn 1.0000 -0.0000 -0.0000
vt 0.000000 0.000000
vt 1.000000 0.000000
vt 0.000000 1.000000
vt 1.000000 1.000000
s 0
usemtl Rojo
f 117/178/39 118/179/39 120/181/39 119/180/39
o FaroTrasero.001
v -4.236318 0.384716 1.851677
v -4.236318 -0.338495 1.851677
v -4.236318 0.384716 1.128467
v -4.236318 -0.338495 1.128467
vn 1.0000 -0.0000 -0.0000
vt 0.000000 0.000000
vt 1.000000 0.000000
vt 0.000000 1.000000
vt 1.000000 1.000000
s 0
usemtl Rojo.001
f 121/182/40 122/183/40 124/185/40 123/184/40
